<?xml version="1.0" encoding="UTF-8"?>
<svg width="24px" height="24px" version="1.1" viewBox="0 0 24 24" xmlns="http://www.w3.org/2000/svg">
    <title>copyshop-m</title>
    <g fill="none" fill-rule="evenodd">
        <g id="copyshop-m" fill-rule="nonzero">
            <path d="m16.047 21.25h-11.562v-15.031c0-.63593-.52031-1.1562-1.1562-1.1562-.63593 0-1.1562.52031-1.1562 1.1562v15.031c0 1.2719 1.0406 2.3125 2.3125 2.3125h11.562c.63593 0 1.1562-.52031 1.1562-1.1562 0-.63593-.52031-1.1562-1.1562-1.1562zm5.7812-4.625v-13.875c0-1.2719-1.0406-2.3125-2.3125-2.3125h-10.406c-1.2719 0-2.3125 1.0406-2.3125 2.3125v13.875c0 1.2719 1.0406 2.3125 2.3125 2.3125h10.406c1.2719 0 2.3125-1.0406 2.3125-2.3125zm-2.3125 0h-10.406v-13.875h10.406z" fill="#ffffff" stroke-width="1.6518"/>
        </g>
    </g>
</svg>
