<?xml version="1.0" encoding="UTF-8"?>
<svg enable-background="new 0 0 820 794" version="1.1" viewBox="0 0 463.19 463.19" xml:space="preserve" xmlns="http://www.w3.org/2000/svg">

<g id="pointer" transform="translate(-177.41 -26)" fill="#449f33">
	<path d="m412.26 410.32c39.422.419 70.995 13.675 70.995 30.487 0 13.531-32.852 29.5-73.375 29.5-40.524 0-75.375-15.969-75.375-29.5 0-16.313 33.839-30.159 73.494-30.492l1.014-4.881c-59.593.181-107.76 19.083-107.76 42.374 0 23.403 48.633 41.375 108.62 41.375s108.62-17.972 108.62-41.375c0-23.191-47.758-42.032-107-42.371z"/>
	<path d="m600.75 97c10 27.25-43.5 93.5-94.5 110.5-92.25-32.75-95.25 22.25-170.75 74.5 89.25 63.25 182.75 14 181-48.25-70.25 41.25-114.25 45.75-139.5 44.5 85-17.25 176.75-70.75 195.97-93.251.018.998.026 1.999.026 3.001 0 107.5-162 267-162 267s-84.802-83.231-131.7-170.16c-6.555-.09-46.007 14.605-60.555-5.09-16.25-22 44-95.75 96.25-117.75 93.5 43.5 144.75-69.25 174-75.5-87.25-53-173.5-31.25-183.25 47.5 48.5-28.25 108-44.25 135.5-43-77.256 16.181-165.75 74.75-192.25 97 0-89.47 72.53-162 162-162 52.91 0 99.895 25.364 129.46 64.597 0 0 52.791-17.597 60.291 6.403zm-18.5 8c-6.949-9.692-31.139 1.629-31.139 1.629 3.387 5.819 6.422 11.869 9.076 18.119 2.689 6.336 4.987 12.879 6.863 19.599.001 0 24.7-26.097 15.2-39.347zm-345.54 165.61c7.512 10.477 33.658-1.761 33.658-1.761-3.661-6.29-6.941-12.829-9.811-19.584-2.907-6.849-5.391-13.921-7.418-21.184 0 0-26.698 28.208-16.429 42.529z"/>
</g>
</svg>
