<?xml version="1.0" standalone="no"?>
<!DOCTYPE svg PUBLIC "-//W3C//DTD SVG 20010904//EN"
 "http://www.w3.org/TR/2001/REC-SVG-20010904/DTD/svg10.dtd">
<svg version="1.0" xmlns="http://www.w3.org/2000/svg"
 width="700.000000pt" height="700.000000pt" viewBox="0 0 700.000000 700.000000"
 preserveAspectRatio="xMidYMid meet">
<metadata>
Created by potrace 1.14, written by Peter Selinger 2001-2017
</metadata>
<g transform="translate(0.000000,700.000000) scale(0.100000,-0.100000)"
fill="#000000" stroke="none">
<path d="M3339 6996 c-2 -2 -35 -6 -74 -10 -38 -3 -97 -10 -130 -16 -33 -6
-76 -13 -95 -16 -57 -9 -229 -53 -315 -80 -502 -160 -971 -491 -1290 -909
-178 -234 -326 -514 -414 -785 -53 -165 -92 -332 -107 -465 -3 -27 -7 -55 -9
-62 -2 -6 -7 -75 -11 -154 l-7 -142 84 64 c46 35 86 67 89 70 15 16 306 217
464 319 833 538 1670 926 2376 1101 l115 29 -125 -5 c-69 -3 -179 -14 -245
-26 -66 -11 -133 -22 -148 -25 -107 -15 -528 -135 -717 -204 -47 -17 -115 -42
-151 -55 -177 -65 -559 -243 -748 -350 l-63 -36 7 58 c24 195 112 426 230 603
44 65 202 236 261 281 117 90 285 178 419 221 46 14 138 39 160 43 69 13 147
25 190 31 73 10 304 12 377 3 206 -23 207 -23 284 -39 66 -13 211 -49 234 -57
19 -8 16 -7 70 -22 156 -44 457 -177 643 -284 l108 -62 -42 -18 c-105 -44
-180 -112 -624 -566 -130 -134 -285 -280 -366 -346 -93 -77 -127 -102 -229
-170 -222 -149 -476 -252 -693 -283 -66 -9 -337 -9 -397 1 -145 22 -237 48
-403 114 l-87 34 -108 -54 c-289 -147 -546 -340 -827 -622 -356 -356 -611
-735 -660 -985 -10 -48 -11 -159 -3 -193 15 -61 87 -135 173 -177 81 -41 181
-58 312 -55 140 4 181 10 368 50 179 38 170 38 190 -4 22 -47 186 -328 240
-411 341 -526 566 -831 979 -1330 67 -80 123 -147 126 -150 3 -3 34 -39 70
-80 174 -202 393 -441 575 -628 l139 -143 94 98 c52 54 122 127 156 163 70 73
236 255 341 374 39 44 75 84 80 90 6 6 35 40 66 76 1082 1264 1730 2375 1873
3210 22 129 40 363 30 381 -2 4 -32 -20 -66 -53 -99 -95 -381 -303 -504 -372
-16 -9 -41 -24 -56 -34 -301 -194 -895 -491 -1323 -662 -71 -28 -146 -58 -165
-65 -210 -84 -626 -215 -845 -266 -44 -10 -114 -27 -155 -38 l-75 -19 175 4
c96 2 186 6 200 8 14 3 61 10 105 16 114 17 110 16 220 40 419 92 893 282
1395 562 74 41 144 80 156 86 20 11 21 9 18 -41 -10 -160 -32 -258 -87 -381
-161 -366 -527 -654 -980 -772 -66 -17 -71 -18 -157 -34 -161 -30 -477 -32
-632 -5 -16 3 -38 7 -50 9 -13 2 -41 7 -63 11 -266 48 -624 199 -898 379 l-88
58 33 24 c18 13 48 33 66 46 43 30 67 49 197 154 171 137 217 179 576 525 252
243 315 300 429 385 144 107 344 200 472 219 23 4 47 9 52 13 19 11 294 10
386 -3 149 -20 454 -95 511 -126 56 -29 106 -16 297 78 104 52 342 200 402
251 14 12 30 25 35 29 303 233 601 577 758 874 222 422 165 695 -158 747 -22
3 -83 6 -135 6 -152 0 -271 -17 -454 -64 -63 -17 -117 -30 -119 -30 -2 0 -40
44 -85 98 -311 377 -740 668 -1209 821 -109 36 -305 84 -388 96 -19 3 -52 8
-72 11 -21 3 -51 7 -68 10 -37 5 -481 14 -486 10z m2925 -1240 c117 -45 127
-204 25 -394 -56 -106 -200 -297 -211 -282 -1 3 -20 56 -40 118 -42 125 -122
310 -180 416 -21 38 -37 70 -36 71 15 12 148 57 203 69 123 27 173 27 239 2z
m-5269 -2176 c47 -143 110 -294 181 -427 30 -57 54 -107 54 -112 0 -7 -30 -22
-70 -36 -167 -55 -193 -60 -300 -59 -100 0 -138 16 -175 72 -70 106 -21 297
132 508 61 85 134 176 139 172 1 -2 19 -55 39 -118z"/>
</g>
</svg>
