<?xml version="1.0" encoding="utf-8"?>
<!-- Generator: Adobe Illustrator 16.0.0, SVG Export Plug-In . SVG Version: 6.00 Build 0)  -->
<!DOCTYPE svg PUBLIC "-//W3C//DTD SVG 1.1//EN" "http://www.w3.org/Graphics/SVG/1.1/DTD/svg11.dtd">
<svg version="1.1" xmlns="http://www.w3.org/2000/svg" xmlns:xlink="http://www.w3.org/1999/xlink" x="0px" y="0px" width="820px"
	 height="794px" viewBox="0 0 820 794" enable-background="new 0 0 820 794" xml:space="preserve">
<g id="brand">
	<g>
		<path fill="#449F33" d="M121.837,540.066c10.54,12.069,15.81,26.718,15.81,43.944c0,8.16-1.275,15.895-3.825,23.205
			c-2.55,7.31-6.233,13.854-11.05,19.635c-4.816,5.779-11.191,10.341-19.125,13.685c-7.934,3.343-16.887,5.015-26.86,5.015
			s-18.926-1.729-26.86-5.185c-7.933-3.457-14.308-8.075-19.125-13.855c-4.817-5.779-8.5-12.268-11.05-19.465
			c-2.55-7.196-3.825-14.817-3.825-22.864c0-18.133,5.723-33.064,17.17-44.795c11.446-11.729,26.123-17.595,44.029-17.595
			C96.394,521.904,111.297,527.996,121.837,540.066z M37.433,600.075c1.643,5.044,4.108,9.69,7.395,13.94s7.678,7.649,13.175,10.199
			c5.497,2.551,11.758,3.825,18.785,3.825c13.94,0,24.423-4.165,31.45-12.495c7.026-8.329,10.54-18.728,10.54-31.194
			c0-7.706-1.389-14.847-4.165-21.42c-2.777-6.573-7.423-12.154-13.94-16.745c-6.517-4.59-14.365-6.941-23.545-7.055
			c-13.373,0-23.771,4.193-31.194,12.58c-7.423,8.387-11.135,19.267-11.135,32.64C34.912,589.791,35.79,595.032,37.433,600.075z"/>
		<path fill="#449F33" d="M262.937,643h-22.27l-36.21-41.14h-25.16V643h-19.04V523.831c6.12,0,15.356,0.028,27.709,0.085
			c12.354,0.057,21.59,0.085,27.71,0.085c13.146,0,23.431,3.825,30.854,11.476c7.423,7.649,11.135,16.801,11.135,27.454
			c0,9.407-2.635,17.538-7.905,24.395c-5.27,6.857-13.401,11.079-24.395,12.665l35.529,39.609L262.937,643z M179.298,541.341v43.18
			h36.21c7.479,0,13.146-2.04,17-6.12c3.854-4.08,5.78-9.123,5.78-15.13c0-5.893-1.926-11.021-5.78-15.385
			c-3.853-4.363-9.463-6.545-16.83-6.545H179.298z"/>
		<path fill="#449F33" d="M367.206,551.371c-4.08-4.08-9.038-7.225-14.875-9.435c-5.836-2.21-11.588-3.315-17.254-3.315
			c-13.487,0-24.197,4.42-32.13,13.26s-11.843,19.776-11.73,32.81c0,12.014,3.684,22.156,11.05,30.43
			c7.367,8.273,18.303,12.41,32.81,12.41c10.993,0,20.683-3.514,29.069-10.54v-24.14h-33.149v-17h50.83v48.79
			c-12.58,13.826-28.163,20.739-46.75,20.739c-10.54,0-19.918-1.672-28.135-5.015c-8.217-3.344-14.762-7.877-19.635-13.6
			c-4.874-5.724-8.557-12.127-11.05-19.21c-2.493-7.084-3.74-14.705-3.74-22.865c0-18.02,5.553-33.121,16.66-45.305
			c11.107-12.183,26.407-18.274,45.9-18.274c17.226,0,31.903,6.007,44.029,18.02L367.206,551.371z"/>
		<path fill="#449F33" d="M484.207,618.011h-64.43L408.558,643h-20.23l53.379-118.999h20.74L515.826,643h-20.229L484.207,618.011z
			 M452.077,544.062l-25.16,56.609h50.319L452.077,544.062z"/>
		<path fill="#449F33" d="M610.425,608.66v-84.659h19.04V643h-14.45l-67.489-83.979V643h-19.209V524.001h14.619L610.425,608.66z"/>
		<path fill="#449F33" d="M657.386,643V524.001h18.87V643H657.386z"/>
		<path fill="#449F33" d="M806.302,627.7c-11.9,11.786-26.803,17.68-44.71,17.68c-10.426,0-19.72-1.7-27.879-5.1
			c-8.16-3.4-14.733-7.99-19.721-13.771c-4.986-5.779-8.755-12.239-11.305-19.379c-2.55-7.141-3.824-14.733-3.824-22.78
			s1.303-15.725,3.909-23.035c2.607-7.31,6.403-13.939,11.391-19.89c4.986-5.949,11.588-10.682,19.805-14.194
			c8.216-3.514,17.425-5.271,27.624-5.271c17,0,31.507,6.007,43.52,18.021l-12.75,12.239c-8.272-8.159-18.529-12.239-30.77-12.239
			c-14.166,0-25.046,4.363-32.64,13.09c-7.593,8.727-11.333,19.096-11.22,31.109c0.113,12.013,3.854,22.241,11.22,30.685
			c7.367,8.443,18.247,12.665,32.64,12.665c5.667,0,11.334-1.134,17-3.4c5.667-2.267,10.54-5.439,14.62-9.52L806.302,627.7z"/>
	</g>
	<g>
		<path fill="#449F33" d="M275.72,699.96L242.4,746.3h-3.36l-32.9-46.34v75.18h-15.68v-97.999h18.2l32.34,45.92l32.2-45.92h18.2
			v97.999h-15.68V699.96z"/>
		<path fill="#449F33" d="M393.438,754.42h-53.06l-9.24,20.58h-16.66l43.96-98h17.08l43.96,98h-16.66L393.438,754.42z
			 M366.979,693.521l-20.72,46.62h41.439L366.979,693.521z"/>
		<path fill="#449F33" d="M458.237,744.9V775h-15.681v-98c4.947,0,12.484-0.022,22.61-0.069c10.127-0.047,17.71-0.07,22.75-0.07
			s9.66,0.771,13.86,2.31c4.199,1.54,7.653,3.617,10.359,6.23c2.707,2.613,5.017,5.623,6.931,9.03
			c1.913,3.406,3.079,6.977,3.5,10.71c0.42,3.733,0.42,7.489,0,11.27c-0.421,3.78-1.563,7.373-3.431,10.78
			c-1.866,3.406-4.177,6.416-6.93,9.029c-2.753,2.614-6.23,4.714-10.43,6.301c-4.2,1.586-8.82,2.38-13.86,2.38H458.237z
			 M458.237,730.48h29.68c4.106,0,7.677-0.957,10.71-2.87s5.227-4.34,6.58-7.28c1.354-2.939,2.03-6.09,2.03-9.45
			c0-3.359-0.677-6.51-2.03-9.449c-1.354-2.94-3.547-5.367-6.58-7.28s-6.604-2.87-10.71-2.87h-29.68V730.48z"/>
		<path fill="#449F33" d="M608.316,698.7c-2.333-3.359-5.67-5.996-10.01-7.91s-9.077-2.917-14.21-3.01
			c-6.721,0-12.181,1.33-16.38,3.99c-4.2,2.66-6.301,6.276-6.301,10.85c0,4.294,2.03,7.42,6.091,9.38
			c4.06,1.96,9.963,3.5,17.71,4.62c5.786,0.84,10.732,1.82,14.84,2.94c4.106,1.12,8.166,2.776,12.18,4.97s7.07,5.18,9.17,8.96
			s3.15,8.283,3.15,13.51c0,7-2.03,12.833-6.091,17.5c-4.06,4.667-9.006,7.957-14.84,9.87c-5.833,1.913-12.39,2.87-19.67,2.87
			c-20.066,0-34.113-7.42-42.14-22.26l11.76-7.841c6.347,10.733,16.521,16.101,30.521,16.101c4.293,0,8.213-0.467,11.76-1.4
			s6.604-2.684,9.17-5.25s3.85-5.763,3.85-9.59c0-4.946-2.217-8.609-6.649-10.99c-4.434-2.38-10.57-4.083-18.41-5.109
			c-4.48-0.561-8.33-1.214-11.55-1.96c-3.22-0.747-6.604-1.82-10.15-3.22c-3.547-1.4-6.416-3.08-8.609-5.04s-4.014-4.504-5.46-7.631
			c-1.447-3.126-2.17-6.696-2.17-10.71c0-4.853,1.119-9.146,3.359-12.88s5.227-6.673,8.96-8.819s7.747-3.757,12.04-4.83
			s8.773-1.61,13.44-1.61c17.453,0,29.633,5.507,36.539,16.521L608.316,698.7z"/>
	</g>
</g>
<g id="pointer">
	<path fill="#449F33" d="M412.255,410.325c39.422,0.419,70.995,13.675,70.995,30.487c0,13.531-32.852,29.5-73.375,29.5
		c-40.524,0-75.375-15.969-75.375-29.5c0-16.313,33.839-30.159,73.494-30.492l1.014-4.881
		c-59.593,0.181-107.758,19.083-107.758,42.374c0,23.403,48.633,41.375,108.625,41.375S518.5,471.216,518.5,447.813
		c0-23.191-47.758-42.032-107-42.371L412.255,410.325z"/>
	<path fill="#449F33" d="M600.75,97c10,27.25-43.5,93.5-94.5,110.5C414,174.75,411,229.75,335.5,282
		c89.25,63.25,182.75,14,181-48.25C446.25,275,402.25,279.5,377,278.25c85-17.25,176.75-70.75,195.974-93.251
		c0.018,0.998,0.026,1.999,0.026,3.001c0,107.5-162,267-162,267s-84.802-83.231-131.695-170.16
		c-6.555-0.09-46.007,14.605-60.555-5.09c-16.25-22,44-95.75,96.25-117.75c93.5,43.5,144.75-69.25,174-75.5
		c-87.25-53-173.5-31.25-183.25,47.5c48.5-28.25,108-44.25,135.5-43C363.994,107.181,275.5,165.75,249,188
		c0-89.47,72.53-162,162-162c52.91,0,99.895,25.364,129.459,64.597C540.459,90.597,593.25,73,600.75,97z M582.25,105
		c-6.949-9.692-31.139,1.629-31.139,1.629c3.387,5.819,6.422,11.869,9.076,18.119c2.689,6.336,4.987,12.879,6.863,19.599
		C567.051,144.347,591.75,118.25,582.25,105z M236.712,270.606c7.512,10.477,33.658-1.761,33.658-1.761
		c-3.661-6.29-6.941-12.829-9.811-19.584c-2.907-6.849-5.391-13.921-7.418-21.184C253.141,228.077,226.443,256.285,236.712,270.606z
		"/>
</g>
</svg>
