<svg width="38" height="56" viewBox="0 0 38 56" fill="none" xmlns="http://www.w3.org/2000/svg">
<mask id="path-1-outside-1_2604_882" maskUnits="userSpaceOnUse" x="0" y="0" width="38" height="56" fill="black">
<rect fill="white" width="38" height="56"/>
<path fill-rule="evenodd" clip-rule="evenodd" d="M37 19C37 24.6545 34.3927 29.7001 30.3147 33H30.32L30.2752 33.0318C29.8131 33.4037 29.3322 33.7531 28.8341 34.0786C19.1287 41.2905 20.0677 44.2078 22.4328 48.9455C22.7929 49.546 23 50.2488 23 51C23 53.2091 21.2091 55 19 55C16.7909 55 15 53.2091 15 51C15 50.2488 15.2071 49.546 15.5672 48.9455C17.9323 44.2078 18.8713 41.2905 9.16585 34.0786C8.66784 33.7531 8.18693 33.4037 7.72477 33.0318C7.70987 33.0212 7.69495 33.0106 7.68 33H7.68533C3.60733 29.7001 1 24.6545 1 19C1 9.05887 9.05887 1 19 1C28.9411 1 37 9.05887 37 19Z"/>
</mask>
<path fill-rule="evenodd" clip-rule="evenodd" d="M37 19C37 24.6545 34.3927 29.7001 30.3147 33H30.32L30.2752 33.0318C29.8131 33.4037 29.3322 33.7531 28.8341 34.0786C19.1287 41.2905 20.0677 44.2078 22.4328 48.9455C22.7929 49.546 23 50.2488 23 51C23 53.2091 21.2091 55 19 55C16.7909 55 15 53.2091 15 51C15 50.2488 15.2071 49.546 15.5672 48.9455C17.9323 44.2078 18.8713 41.2905 9.16585 34.0786C8.66784 33.7531 8.18693 33.4037 7.72477 33.0318C7.70987 33.0212 7.69495 33.0106 7.68 33H7.68533C3.60733 29.7001 1 24.6545 1 19C1 9.05887 9.05887 1 19 1C28.9411 1 37 9.05887 37 19Z" fill="#E34C10"/>
<path fill-rule="evenodd" clip-rule="evenodd" d="M37 19C37 24.6545 34.3927 29.7001 30.3147 33H30.32L30.2752 33.0318C29.8131 33.4037 29.3322 33.7531 28.8341 34.0786C19.1287 41.2905 20.0677 44.2078 22.4328 48.9455C22.7929 49.546 23 50.2488 23 51C23 53.2091 21.2091 55 19 55C16.7909 55 15 53.2091 15 51C15 50.2488 15.2071 49.546 15.5672 48.9455C17.9323 44.2078 18.8713 41.2905 9.16585 34.0786C8.66784 33.7531 8.18693 33.4037 7.72477 33.0318C7.70987 33.0212 7.69495 33.0106 7.68 33H7.68533C3.60733 29.7001 1 24.6545 1 19C1 9.05887 9.05887 1 19 1C28.9411 1 37 9.05887 37 19Z" fill="url(#paint0_linear_2604_882)" fill-opacity="0.25"/>
<path d="M30.3147 33L29.6856 32.2226C29.3563 32.4891 29.2306 32.9343 29.372 33.3336C29.5133 33.733 29.891 34 30.3147 34V33ZM30.32 33L30.8994 33.8151C31.254 33.563 31.405 33.1105 31.2726 32.6959C31.1403 32.2814 30.7551 32 30.32 32V33ZM30.2752 33.0318L29.6959 32.2168C29.6797 32.2283 29.6638 32.2402 29.6484 32.2527L30.2752 33.0318ZM28.8341 34.0786L28.2871 33.2415C28.2703 33.2525 28.2538 33.264 28.2377 33.2759L28.8341 34.0786ZM22.4328 48.9455L21.5381 49.3922C21.5496 49.4152 21.562 49.4378 21.5752 49.4599L22.4328 48.9455ZM15.5672 48.9455L16.4248 49.4599C16.438 49.4378 16.4504 49.4152 16.4619 49.3922L15.5672 48.9455ZM9.16585 34.0786L9.76229 33.2759C9.74618 33.264 9.72972 33.2525 9.71291 33.2415L9.16585 34.0786ZM7.72477 33.0318L8.35164 32.2527C8.33623 32.2403 8.32045 32.2284 8.30433 32.2169L7.72477 33.0318ZM7.68 33V32C7.24481 32 6.85959 32.2815 6.72731 32.696C6.59504 33.1106 6.74608 33.5632 7.10086 33.8152L7.68 33ZM7.68533 33V34C8.10899 34 8.48668 33.733 8.62803 33.3336C8.76938 32.9343 8.64372 32.4891 8.31438 32.2226L7.68533 33ZM30.9437 33.7774C35.2463 30.2958 38 24.9691 38 19H36C36 24.34 33.5391 29.1044 29.6856 32.2226L30.9437 33.7774ZM30.32 32H30.3147V34H30.32V32ZM30.8546 33.8469L30.8994 33.8151L29.7406 32.1849L29.6959 32.2168L30.8546 33.8469ZM29.3812 34.9157C29.9069 34.5722 30.4144 34.2033 30.9021 33.811L29.6484 32.2527C29.2118 32.604 28.7575 32.9341 28.2871 33.2415L29.3812 34.9157ZM23.3275 48.4989C22.1301 46.1002 21.5111 44.5301 22.063 42.7335C22.642 40.8484 24.5836 38.483 29.4306 34.8813L28.2377 33.2759C23.3793 36.8862 20.9377 39.5854 20.1511 42.1463C19.3373 44.7958 20.3704 47.0531 21.5381 49.3922L23.3275 48.4989ZM24 51C24 50.0627 23.7411 49.1827 23.2904 48.4312L21.5752 49.4599C21.8448 49.9093 22 50.435 22 51H24ZM19 56C21.7614 56 24 53.7614 24 51H22C22 52.6569 20.6569 54 19 54V56ZM14 51C14 53.7614 16.2386 56 19 56V54C17.3431 54 16 52.6569 16 51H14ZM14.7096 48.4312C14.2589 49.1827 14 50.0627 14 51H16C16 50.435 16.1552 49.9093 16.4248 49.4599L14.7096 48.4312ZM8.56941 34.8813C13.4164 38.483 15.358 40.8484 15.937 42.7335C16.4889 44.5301 15.8699 46.1002 14.6725 48.4989L16.4619 49.3922C17.6296 47.0531 18.6627 44.7958 17.8489 42.1463C17.0623 39.5854 14.6207 36.8862 9.76229 33.2759L8.56941 34.8813ZM7.09791 33.811C7.58561 34.2033 8.09315 34.5722 8.61879 34.9157L9.71291 33.2415C9.24252 32.9341 8.78824 32.604 8.35164 32.2527L7.09791 33.811ZM7.10086 33.8152C7.11564 33.8257 7.13042 33.8362 7.14522 33.8468L8.30433 32.2169C8.28931 32.2062 8.27425 32.1955 8.25914 32.1848L7.10086 33.8152ZM7.68533 32H7.68V34H7.68533V32ZM0 19C0 24.9691 2.75374 30.2958 7.05629 33.7774L8.31438 32.2226C4.46093 29.1044 2 24.34 2 19H0ZM19 0C8.50659 0 0 8.50659 0 19H2C2 9.61116 9.61116 2 19 2V0ZM38 19C38 8.50659 29.4934 0 19 0V2C28.3888 2 36 9.61116 36 19H38Z" fill="white" fill-opacity="0.6" mask="url(#path-1-outside-1_2604_882)"/>
<path d="M30.3147 33L29.6856 32.2226C29.3563 32.4891 29.2306 32.9343 29.372 33.3336C29.5133 33.733 29.891 34 30.3147 34V33ZM30.32 33L30.8994 33.8151C31.254 33.563 31.405 33.1105 31.2726 32.6959C31.1403 32.2814 30.7551 32 30.32 32V33ZM30.2752 33.0318L29.6959 32.2168C29.6797 32.2283 29.6638 32.2402 29.6484 32.2527L30.2752 33.0318ZM28.8341 34.0786L28.2871 33.2415C28.2703 33.2525 28.2538 33.264 28.2377 33.2759L28.8341 34.0786ZM22.4328 48.9455L21.5381 49.3922C21.5496 49.4152 21.562 49.4378 21.5752 49.4599L22.4328 48.9455ZM15.5672 48.9455L16.4248 49.4599C16.438 49.4378 16.4504 49.4152 16.4619 49.3922L15.5672 48.9455ZM9.16585 34.0786L9.76229 33.2759C9.74618 33.264 9.72972 33.2525 9.71291 33.2415L9.16585 34.0786ZM7.72477 33.0318L8.35164 32.2527C8.33623 32.2403 8.32045 32.2284 8.30433 32.2169L7.72477 33.0318ZM7.68 33V32C7.24481 32 6.85959 32.2815 6.72731 32.696C6.59504 33.1106 6.74608 33.5632 7.10086 33.8152L7.68 33ZM7.68533 33V34C8.10899 34 8.48668 33.733 8.62803 33.3336C8.76938 32.9343 8.64372 32.4891 8.31438 32.2226L7.68533 33ZM30.9437 33.7774C35.2463 30.2958 38 24.9691 38 19H36C36 24.34 33.5391 29.1044 29.6856 32.2226L30.9437 33.7774ZM30.32 32H30.3147V34H30.32V32ZM30.8546 33.8469L30.8994 33.8151L29.7406 32.1849L29.6959 32.2168L30.8546 33.8469ZM29.3812 34.9157C29.9069 34.5722 30.4144 34.2033 30.9021 33.811L29.6484 32.2527C29.2118 32.604 28.7575 32.9341 28.2871 33.2415L29.3812 34.9157ZM23.3275 48.4989C22.1301 46.1002 21.5111 44.5301 22.063 42.7335C22.642 40.8484 24.5836 38.483 29.4306 34.8813L28.2377 33.2759C23.3793 36.8862 20.9377 39.5854 20.1511 42.1463C19.3373 44.7958 20.3704 47.0531 21.5381 49.3922L23.3275 48.4989ZM24 51C24 50.0627 23.7411 49.1827 23.2904 48.4312L21.5752 49.4599C21.8448 49.9093 22 50.435 22 51H24ZM19 56C21.7614 56 24 53.7614 24 51H22C22 52.6569 20.6569 54 19 54V56ZM14 51C14 53.7614 16.2386 56 19 56V54C17.3431 54 16 52.6569 16 51H14ZM14.7096 48.4312C14.2589 49.1827 14 50.0627 14 51H16C16 50.435 16.1552 49.9093 16.4248 49.4599L14.7096 48.4312ZM8.56941 34.8813C13.4164 38.483 15.358 40.8484 15.937 42.7335C16.4889 44.5301 15.8699 46.1002 14.6725 48.4989L16.4619 49.3922C17.6296 47.0531 18.6627 44.7958 17.8489 42.1463C17.0623 39.5854 14.6207 36.8862 9.76229 33.2759L8.56941 34.8813ZM7.09791 33.811C7.58561 34.2033 8.09315 34.5722 8.61879 34.9157L9.71291 33.2415C9.24252 32.9341 8.78824 32.604 8.35164 32.2527L7.09791 33.811ZM7.10086 33.8152C7.11564 33.8257 7.13042 33.8362 7.14522 33.8468L8.30433 32.2169C8.28931 32.2062 8.27425 32.1955 8.25914 32.1848L7.10086 33.8152ZM7.68533 32H7.68V34H7.68533V32ZM0 19C0 24.9691 2.75374 30.2958 7.05629 33.7774L8.31438 32.2226C4.46093 29.1044 2 24.34 2 19H0ZM19 0C8.50659 0 0 8.50659 0 19H2C2 9.61116 9.61116 2 19 2V0ZM38 19C38 8.50659 29.4934 0 19 0V2C28.3888 2 36 9.61116 36 19H38Z" fill="black" fill-opacity="0.03" mask="url(#path-1-outside-1_2604_882)"/>
<path fill-rule="evenodd" clip-rule="evenodd" d="M14.0505 27L19 24.2626L23.9495 27L23 21.2069L27 17.1114L21.4646 16.2626L19 11L16.5354 16.2626L11 17.1114L15 21.2069L14.0505 27Z" fill="white"/>
<defs>
<linearGradient id="paint0_linear_2604_882" x1="4.01172" y1="10.0352" x2="4.01172" y2="55" gradientUnits="userSpaceOnUse">
<stop stop-color="white" stop-opacity="0.5"/>
<stop offset="1" stop-opacity="0.5"/>
</linearGradient>
</defs>
</svg>
